<?xml version="1.0" encoding="utf-8"?>
<!-- Generator: Adobe Illustrator 19.2.1, SVG Export Plug-In . SVG Version: 6.00 Build 0)  -->
<svg version="1.1" id="layer" xmlns="http://www.w3.org/2000/svg" xmlns:xlink="http://www.w3.org/1999/xlink" x="0px" y="0px"
	 viewBox="0 0 652 652" style="enable-background:new 0 0 652 652;" xml:space="preserve">
<style type="text/css">
	.st0{fill:#E10915;}
</style>
<path id="Rahmen" class="st0" d="M70.5,571.5h500v-500h-500V571.5z M549,550H92V93h457V550z"/>
<rect id="Quadrat2" x="226.4" y="270.4" class="st0" width="91.4" height="91.4"/>
<rect id="Quadrat1" x="226.4" y="162.9" class="st0" width="91.4" height="91.4"/>
<polygon id="Dreieck2" class="st0" points="333.9,361.8 425.3,361.8 333.9,270.4 "/>
<polygon id="Dreieck1" class="st0" points="333.9,162.9 333.9,254.3 425.3,162.9 "/>
<rect id="l" x="332.7" y="415" class="st0" width="12.9" height="65.1"/>
<path id="d" class="st0" d="M493.5,415v26.9c-3.6-3.8-8.6-5.9-13.8-5.9c-12.2,0-20.5,10.1-20.5,22.8c-0.9,11.5,7.8,21.5,19.2,22.4
	c0.4,0,0.8,0,1.2,0.1c5.2,0.1,10.2-2.1,13.8-5.9v4.7H506V415H493.5z M493.5,465.7c-2.3,3-5.9,4.7-9.7,4.6
	c-6.6-0.4-11.6-6.1-11.1-12.7c0.4-6,5.1-10.7,11.1-11.1c3.8-0.1,7.3,1.7,9.7,4.6V465.7z"/>
<path id="a2" class="st0" d="M387.4,441.3c-3.6-3.4-8.3-5.4-13.3-5.4c-12.1,0-20.4,10.1-20.4,22.8c-0.9,11.5,7.8,21.5,19.2,22.4
	c0.4,0,0.8,0,1.2,0.1c5,0.1,9.8-1.9,13.3-5.4v4.4H400v-43.3h-12.6V441.3z M387.4,466.2c-2.3,2.6-5.7,4.1-9.2,4.1
	c-6.6-0.4-11.6-6.1-11.1-12.7c0.4-6,5.1-10.7,11.1-11.1c3.5,0,6.9,1.5,9.2,4.1V466.2z"/>
<path id="n" class="st0" d="M435.6,435.8c-5.3,0-10.3,2.2-13.8,6.1v-5.4h-12.6v43.5h12.6v-28.4c2.1-3.1,5.6-5,9.3-4.9
	c4.4-0.2,8.2,3.1,8.4,7.5c0,0.5,0,1-0.1,1.5v24.3h12.7v-26.9c0.7-8.9-5.8-16.7-14.7-17.4C436.9,435.7,436.2,435.7,435.6,435.8"/>
<path id="u" class="st0" d="M271.9,465.2c-2.1,3-5.6,4.9-9.3,4.9c-4.5,0.2-8.3-3.2-8.5-7.7c0-0.5,0-0.9,0.1-1.4v-24.3h-12.8v26.9
	c-0.7,8.9,5.8,16.7,14.7,17.4c0.6,0.1,1.3,0.1,1.9,0c5.3,0,10.4-2.4,13.9-6.4v5.4h12.6v-43.3h-12.6V465.2z"/>
<path id="a1" class="st0" d="M219.9,441.3c-3.6-3.4-8.3-5.4-13.3-5.4c-12.1,0-20.4,10.1-20.4,22.8c-0.9,11.5,7.8,21.5,19.2,22.4
	c0.4,0,0.8,0,1.2,0.1c5,0.1,9.8-1.9,13.3-5.4v4.4h12.6v-43.3h-12.6V441.3z M219.9,466.2c-2.3,2.6-5.7,4.1-9.2,4.1
	c-6.6-0.4-11.6-6.1-11.1-12.7c0.4-6,5.1-10.7,11.1-11.1c3.5,0,6.9,1.5,9.2,4.1L219.9,466.2z"/>
<polygon id="K" class="st0" points="187.5,415 171,415 149.6,444.8 149.6,415 135,415 135,480.1 149.6,480.1 149.6,450.8 171,480.1 
	187.9,480.1 162.8,446.8 "/>
<path id="f" class="st0" d="M317.8,424.6c2.4-0.1,4.8,0.6,6.8,1.9l2-9.7c-3.5-2.1-7.6-3-11.6-2.7c-8.9-0.6-16.6,6.1-17.2,14.9
	c-0.1,0.9-0.1,1.8,0,2.7v5.4h-6.4v10.4h6.4v32.6h12.9v-33h14.7v-10.4h-14.7v-4C310.7,427.4,313.2,424.6,317.8,424.6"/>
</svg>
